<?xml version="1.0" standalone="no"?>
<!DOCTYPE svg PUBLIC "-//W3C//DTD SVG 20010904//EN"
 "http://www.w3.org/TR/2001/REC-SVG-20010904/DTD/svg10.dtd">
<svg version="1.0" xmlns="http://www.w3.org/2000/svg"
 width="264.000000pt" height="264.000000pt" viewBox="0 0 264.000000 264.000000"
 preserveAspectRatio="xMidYMid meet">
<metadata>
Created by potrace 1.14, written by Peter Selinger 2001-2017
</metadata>
<g transform="translate(0.000000,264.000000) scale(0.100000,-0.100000)"
fill="#000000" stroke="none">
<path d="M1167 1844 c-1 -1 -27 -5 -57 -8 -30 -3 -64 -8 -75 -10 -310 -64
-528 -211 -651 -441 -10 -17 -19 -20 -71 -17 -88 5 -133 -22 -133 -78 0 -20
30 -42 51 -38 7 2 12 -20 14 -62 1 -43 9 -80 24 -108 16 -31 19 -47 12 -56 -8
-9 1 -20 34 -41 25 -15 57 -44 72 -64 41 -56 91 -99 157 -136 60 -33 217 -90
278 -100 17 -3 34 -7 37 -9 3 -2 29 -7 56 -11 28 -3 66 -9 85 -11 158 -22 405
-17 600 11 62 8 181 40 251 66 112 41 177 78 233 134 28 28 72 63 99 78 26 15
48 33 48 40 1 7 2 26 4 42 1 17 9 48 18 70 9 22 16 59 17 83 0 28 4 42 13 41
36 -4 54 20 41 55 -10 25 -77 56 -122 56 -38 0 -39 1 -75 73 -85 171 -275 316
-514 391 -77 24 -101 29 -198 42 -49 6 -243 13 -248 8z m912 -620 c40 -20 71
-37 69 -39 -2 -2 -41 7 -87 21 -86 25 -126 30 -135 16 -2 -4 4 -27 14 -49 17
-39 17 -42 2 -46 -9 -2 -39 5 -67 15 -77 30 -86 38 -38 34 46 -4 68 10 57 38
-11 28 15 46 66 46 34 0 67 -10 119 -36z m-1234 -34 c39 -21 78 -36 88 -35 20
4 23 -10 5 -21 -22 -14 -71 -4 -128 27 l-58 31 -43 -23 c-24 -13 -49 -24 -55
-25 -6 -1 -35 13 -65 32 l-54 34 64 -4 c50 -4 71 0 100 15 41 22 51 20 146
-31z"/>
</g>
</svg>
